<svg width="38" height="38" viewBox="0 0 200 200"  xmlns="http://www.w3.org/2000/svg">
<rect width="200" height="200" />
<g id="Layer_1" clip-path="url(#clip0_0_1)">
<g id="SVGRepo_iconCarrier">
<g id="Group">
<g id="Group_2">
<g id="Group_3">
<g id="Vector_1">
<path id="Vector_1" d="M188.696 26.4047H11.3037C5.07137 26.4047 -7.62939e-06 31.4761 -7.62939e-06 37.7084V54.0956C-7.62939e-06 60.3286 5.07137 65.4 11.3037 65.4H188.696C194.929 65.4 200 60.3286 200 54.0956V37.7084C200 31.4761 194.929 26.4047 188.696 26.4047Z" fill="white"/>
</g>
<g id="Vector_2">
<path id="Vector_2" d="M188.696 80.5024H11.3037C5.07137 80.5024 -7.62939e-06 85.5737 -7.62939e-06 91.8061V108.194C-7.62939e-06 114.426 5.07137 119.498 11.3037 119.498H188.696C194.929 119.498 200 114.426 200 108.194V91.8061C200 85.5737 194.929 80.5024 188.696 80.5024Z" />
</g>
<g id="vector_3">
<path id="vector_3" d="M188.696 134.6H11.3037C5.07137 134.6 -7.62939e-06 139.671 -7.62939e-06 145.904V162.292C-7.62939e-06 168.524 5.07137 173.595 11.3037 173.595H188.696C194.929 173.595 200 168.524 200 162.292V145.904C200 139.671 194.929 134.6 188.696 134.6Z" fill="white"/>
</g>
</g>
</g>
</g>
</g>
</g>
<defs>
<clipPath id="clip0_0_1">
<rect width="200" height="200" fill="white"/>
</clipPath>
</defs>
</svg>
